<svg width="319" height="300" viewBox="0 0 319 300" fill="none" xmlns="http://www.w3.org/2000/svg">
<path fill-rule="evenodd" clip-rule="evenodd" d="M97.4558 180.066L101.132 165.362C101.132 165.362 79.3585 176.521 64.3708 176.39C28.588 176.078 -1.22853 146.901 0.0389796 111.14C1.12968 80.3664 22.7811 57.9017 52.4235 49.5648C81.8323 41.2936 115.836 72.5404 115.836 72.5404C115.836 72.5404 116.66 57.9018 120.431 49.5648C123.922 41.8472 133.298 32.1034 133.298 32.1034C133.298 32.1034 128.587 21.3451 123.188 16.4799C116.01 10.0103 112.16 9.12771 107.565 8.20868C107.091 8.11384 106.298 8.00537 105.332 7.87317C101.49 7.34722 94.903 6.44568 94.6987 4.53257C94.4084 1.81471 105.727 1.7755 105.727 1.7755C105.727 1.7755 118.3 3.87653 126.865 10.0467C134.323 15.42 141.569 28.4272 141.569 28.4272C141.569 28.4272 151.564 25.8224 158.111 25.6702C165.723 25.4932 177.411 28.4272 177.411 28.4272C177.411 28.4272 185.239 17.1217 192.115 11.8848C199.395 6.34081 213.253 1.77549 213.253 1.77549C213.253 1.77549 223.362 -0.981558 224.281 2.69454C224.77 4.64721 223.961 4.72397 221.581 4.95C219.48 5.1495 216.154 5.46527 211.415 7.28966C210.364 7.69409 209.35 8.06274 208.359 8.42248L208.359 8.42257C203.419 10.2175 199.089 11.7906 193.954 16.4799C188.587 21.3804 183.844 32.1034 183.844 32.1034C183.844 32.1034 193.22 41.8472 196.711 49.5648C200.482 57.9018 201.306 72.5404 201.306 72.5404C201.306 72.5404 231.96 48.6446 254.609 49.5648C290.62 51.0279 320.508 79.7282 318.941 115.735C317.44 150.231 289.115 177.665 254.609 176.391C241.031 175.889 221.614 165.411 221.525 165.362H218.767L221.524 180.066C221.524 180.066 184.262 170.928 159.95 170.876C135.282 170.823 97.4558 180.066 97.4558 180.066ZM179.903 116.568C192.05 125.061 244.863 161.448 254.609 158.929C278.202 152.831 297.957 140.045 299.642 115.735C301.485 89.1406 279.429 66.1074 252.771 66.1074C238.465 66.1074 178.924 110.473 175.708 112.876L179.903 116.568ZM142.784 112.496C135.971 107.245 75.1751 61.0088 56.0996 67.9453C35.881 75.2975 18.193 88.5279 17.5005 111.14C16.783 134.565 37.7191 152.496 56.0996 157.091C72.9402 161.301 130.669 122.308 140.224 115.745L142.784 112.496ZM109.403 226.018L97.4558 203.961C97.4558 203.961 136.159 191.217 160.869 192.014C184.369 192.772 220.605 204.88 220.605 204.88L207.739 226.937C207.739 226.937 178.016 221.006 159.95 220.504C140.165 219.954 109.403 226.018 109.403 226.018ZM159.95 299.54L125.027 247.156C125.027 247.156 146.293 244.337 159.95 244.398C172.532 244.455 193.034 247.156 193.034 247.156L159.95 299.54Z" fill="#F2A922"/>
</svg>
