<svg width="149" height="149" viewBox="0 0 149 149" fill="none" xmlns="http://www.w3.org/2000/svg">
<g clip-path="url(#clip0_2_5)">
<path d="M76.6489 19.1104L74.3511 23.7058L83.207 28.1336V41.9598H88.3449V24.9584L76.6489 19.1104Z" fill="white"/>
<path d="M100.626 60.2137L98.3281 64.8092L107.184 69.237V83.0631H112.322V66.0617L100.626 60.2137Z" fill="white"/>
<path d="M124.603 101.317L122.305 105.913L131.161 110.341V124.167H136.299V107.165L124.603 101.317Z" fill="white"/>
<path d="M150 48.5888V18.2068L123.526 3.03558L99.4808 16.7366L75.5725 3.03558L51.527 16.7366L27.6186 3.03558L19.4239 7.70464L21.9674 12.1688L27.6108 8.9531L48.9538 21.1842V45.6068L27.5459 57.8399L6.13788 45.6068V21.1883L15.1157 16.0728L12.5722 11.6086L1 18.2027V48.5888L24.9771 62.2901V86.7617L1 100.409V130.795L27.5459 145.964L51.5229 132.263L75.5 145.964L99.4771 132.263L123.454 145.964L133.721 140.098L131.172 135.637L123.454 140.047L102.046 127.814V103.396L123.519 91.1601L144.862 103.391V127.814L137.164 132.213L139.713 136.673L150 130.796V100.413L126.023 86.6729V62.2896L150 48.5888ZM54.092 21.1886L75.5649 8.9531L96.9083 21.1845V45.6071L75.502 57.8391L54.0923 45.5696V21.1886H54.092ZM48.9541 127.813L27.5462 140.047L6.13817 127.813V103.396L27.5785 91.1918L48.9544 103.394V127.813H48.9541ZM30.1149 86.6732V62.2928L51.5552 50.089L72.9312 62.2904V86.7101L51.525 98.9421L30.1149 86.6732ZM96.908 127.813L75.5 140.047L54.092 127.814V103.396L75.5323 91.1924L96.9083 103.394V127.813H96.908ZM120.885 86.7101L99.4788 98.9424L78.0691 86.6729V62.2925L99.5094 50.0887L120.885 62.2901L120.885 86.7101ZM123.456 57.8388L102.046 45.5698V21.1883L123.519 8.9531L144.862 21.1842V45.6068L123.456 57.8388Z" fill="white"/>
<path d="M124.603 19.1104L122.305 23.7058L131.161 28.1336V41.9598H136.299V24.9584L124.603 19.1104Z" fill="white"/>
<path d="M76.6489 101.317L74.3511 105.913L83.207 110.341V124.167H88.3449V107.165L76.6489 101.317Z" fill="white"/>
<path d="M28.6948 101.317L26.3972 105.913L35.2528 110.341V124.167H40.3907V107.165L28.6948 101.317Z" fill="white"/>
<path d="M52.6719 60.2137L50.374 64.8092L59.2299 69.237V83.0631H64.3678V66.0617L52.6719 60.2137Z" fill="white"/>
<path d="M28.6948 19.1104L26.3972 23.7058L35.2528 28.1336V41.9598H40.3907V24.9584L28.6948 19.1104Z" fill="white"/>
</g>
<defs>
<clipPath id="clip0_2_5">
<rect width="149" height="149" fill="white"/>
</clipPath>
</defs>
</svg>
